<svg id="Capa_1" enable-background="new 0 0 512.035 512.035" height="48" viewBox="0 0 512.035 512.035" width="48" fill="#fff" xmlns="http://www.w3.org/2000/svg"><g><path d="m362.035 90h-30v60h-60v30h60v60h30v-60h60v-30h-60z"/><path d="m347.035 0c-90.981 0-165 74.019-165 165 0 40.101 14.386 76.902 38.26 105.527l-42.549 42.549-21.211-21.211-156.535 156.535 63.635 63.635 156.535-156.535-21.211-21.211 42.549-42.549c28.625 23.874 65.426 38.26 105.527 38.26 90.981 0 165-74.019 165-165s-74.018-165-165-165zm-283.4 469.608-21.208-21.208 114.108-114.108 21.208 21.208zm283.4-169.608c-74.439 0-135-60.561-135-135s60.561-135 135-135 135 60.561 135 135-60.56 135-135 135z"/></g></svg>